<svg height="512pt" viewBox="0 0 512.00155 512" width="512pt" xmlns="http://www.w3.org/2000/svg"><path d="m99.9375 121.160156 21.210938-21.21875 274.054687 273.976563-21.210937 21.214843zm0 0" fill="#575f64"/><path d="m99.9375 121.15625 10.605469-10.605469 274.050781 273.972657-10.605469 10.609374zm0 0" fill="#32393f"/><path d="m77.234375 151.992188h60.035156c4.027344.210937 7.847657-1.359376 10.605469-4.117188s4.339844-6.574219 4.125-10.605469v-60.035156c-.210938-5.726563-2.851562-10.816406-7.941406-13.363281l-122.191406-62.367188c-5.726563-2.753906-12.726563-1.695312-17.394532 2.96875-4.667968 4.667969-5.726562 11.667969-2.96875 17.394532l62.367188 122.191406c2.542968 5.089844 7.636718 7.71875 13.363281 7.933594zm0 0" fill="#c5d3dd"/><path d="m137.269531 151.992188c4.027344.210937 7.847657-1.359376 10.605469-4.117188l-143.402344-143.402344c-4.664062 4.667969-5.726562 11.667969-2.96875 17.394532l62.367188 122.191406c2.542968 5.089844 7.636718 7.71875 13.363281 7.933594zm0 0" fill="#9facba"/><path d="m314.816406 420.78125 86.851563 86.851562c7.847656 7.851563 21.214843 4.667969 24.605469-5.9375l19.09375-56.429687 56.425781-19.089844c4.878906-1.484375 8.699219-5.726562 9.761719-10.605469 1.269531-5.089843-.214844-10.394531-3.820313-14l-86.855469-86.855468c-4.03125-4.03125-10.179687-5.515625-15.484375-3.605469l-63.640625 21.214844c-2.332031.632812-4.03125 1.90625-5.726562 3.605469-1.695313 1.699218-2.96875 3.394531-3.605469 5.726562l-21.210937 63.640625c-1.914063 5.300781-.425782 11.453125 3.605468 15.484375zm0 0" fill="#61d7a8"/><path d="m314.816406 420.78125 86.851563 86.851562c7.847656 7.851563 21.214843 4.667969 24.605469-5.9375l19.09375-56.429687-109.339844-109.335937c-1.695313 1.695312-2.96875 3.394531-3.605469 5.726562l-21.210937 63.640625c-1.914063 5.300781-.425782 11.453125 3.605468 15.484375zm0 0" fill="#00ab94"/><path d="m384.605469 405.71875 65.640625 65.640625c5.941406 5.941406 15.273437 5.941406 21.214844 0 5.9375-5.9375 5.9375-15.273437 0-21.210937l-65.640626-65.640626c-5.941406-5.941406-15.273437-5.941406-21.214843 0-5.941407 5.941407-5.941407 15.273438 0 21.210938zm0 0" fill="#00ab94"/><path d="m384.605469 405.71875 65.640625 65.640625c5.941406 5.941406 15.273437 5.941406 21.214844 0l-86.855469-86.851563c-5.941407 5.941407-5.941407 15.273438 0 21.210938zm0 0" fill="#009184"/><path d="m116.792969 373.890625 274.050781-273.976563 21.210938 21.214844-274.050782 273.976563zm0 0" fill="#7c8388"/><path d="m127.398438 384.496094 274.054687-273.976563 10.601563 10.609375-274.050782 273.976563zm0 0" fill="#575f64"/><path d="m448.128906 144.058594 62.367188-122.191406c2.757812-5.726563 1.699218-12.726563-2.96875-17.394532-4.664063-4.664062-11.667969-5.726562-17.394532-2.96875l-122.1875 62.367188c-5.09375 2.546875-7.734374 7.636718-7.945312 13.363281v60.035156c-.210938 4.027344 1.367188 7.847657 4.125 10.605469s6.578125 4.328125 10.609375 4.117188h60.03125c5.730469-.214844 10.820313-2.84375 13.363281-7.933594zm0 0" fill="#deecf1"/><path d="m374.734375 151.992188c-4.03125.210937-7.851563-1.359376-10.609375-4.117188l143.402344-143.402344c4.667968 4.667969 5.726562 11.667969 2.96875 17.394532l-62.367188 122.191406c-2.542968 5.089844-7.632812 7.71875-13.363281 7.933594zm0 0" fill="#c5d3dd"/><path d="m200.792969 405.296875-21.214844-63.640625c-.632813-2.332031-1.90625-4.03125-3.605469-5.726562-1.695312-1.699219-3.394531-2.972657-5.726562-3.605469l-63.640625-21.214844c-5.304688-1.910156-11.453125-.425781-15.484375 3.605469l-86.851563 86.851562c-3.609375 3.609375-5.09375 8.910156-3.820312 14.003906 1.0625 4.878907 4.878906 9.121094 9.757812 10.605469l56.429688 19.089844 19.089843 56.429687c3.394532 10.605469 16.757813 13.785157 24.609376 5.9375l86.851562-86.851562c4.03125-4.03125 5.515625-10.183594 3.605469-15.484375zm0 0" fill="#61d7a8"/><path d="m197.1875 420.78125-86.855469 86.851562c-7.847656 7.851563-21.210937 4.667969-24.605469-5.9375l-19.09375-56.429687 109.339844-109.335937c1.699219 1.695312 2.972656 3.394531 3.605469 5.726562l21.214844 63.640625c1.910156 5.300781.425781 11.453125-3.605469 15.484375zm0 0" fill="#00ab94"/><path d="m127.394531 405.71875-65.640625 65.640625c-5.9375 5.941406-15.273437 5.941406-21.210937 0-5.941407-5.9375-5.941407-15.273437 0-21.210937l65.636719-65.640626c5.941406-5.941406 15.273437-5.941406 21.214843 0 5.941407 5.941407 5.941407 15.273438 0 21.210938zm0 0" fill="#00ab94"/><path d="m127.394531 405.71875-65.640625 65.640625c-5.9375 5.941406-15.273437 5.941406-21.210937 0l86.851562-86.851563c5.941407 5.941407 5.941407 15.273438 0 21.210938zm0 0" fill="#009184"/></svg>