<svg height="512pt" viewBox="-117 0 512 512" width="512pt" xmlns="http://www.w3.org/2000/svg"><path d="m138.667969 156.453125-10.667969 164.332031 10.667969 191.214844 24.921875-18.125c15.605468-11.347656 24.917968-29.640625 24.917968-48.933594v-288.488281zm0 0" fill="#c5d3dd"/><path d="m88.824219 156.453125v288.488281c0 19.292969 9.316406 37.585938 24.917969 48.933594l24.925781 18.125v-355.546875zm0 0" fill="#d9e7ec"/><path d="m153.667969 160.785156h-15l-10.667969 74.667969 10.667969 74.664063h15zm0 0" fill="#d9e7ec"/><path d="m123.667969 160.785156h15v149.332032h-15zm0 0" fill="#f7fafb"/><path d="m170.667969 106.664062v-96h-32l-10.667969 106.667969 10.667969 53.335938h72.648437c0 17.671875 14.324219 32 32 32h2.019532c17.671874 0 32-14.328125 32-32v-64h-106.667969zm0 0" fill="#ffb62d"/><path d="m106.667969 10.667969v96h-106.667969v64c0 17.671875 14.328125 32 32 32h2.019531c17.671875 0 32-14.328125 32-32h72.648438v-160zm0 0" fill="#fdcb02"/><path d="m192 0h-53.332031l-10.667969 10.667969 10.667969 19.332031h53.332031zm0 0" fill="#f90"/><path d="m85.335938 0h53.332031v30h-53.332031zm0 0" fill="#ffb62d"/></svg>